<?xml version="1.0" encoding="UTF-8"?>
<svg width="22px" height="23px" viewBox="0 0 22 23" version="1.1" xmlns="http://www.w3.org/2000/svg" xmlns:xlink="http://www.w3.org/1999/xlink">
    <!-- Generator: Sketch 52.5 (67469) - http://www.bohemiancoding.com/sketch -->
    <title>Icon/Universal/action playable/ic_action_playable@3x</title>
    <desc>Created with Sketch.</desc>
    <defs>
        <linearGradient x1="50%" y1="0%" x2="50%" y2="98.894109%" id="linearGradient-1">
            <stop stop-color="#FF6677" offset="0%"></stop>
            <stop stop-color="#DC4A5A" offset="100%"></stop>
        </linearGradient>
        <path d="M12.024292,1.03088379 C18.0994242,1.03088379 23.024292,5.95575154 23.024292,12.0308838 C23.024292,18.106016 18.0994242,23.0308838 12.024292,23.0308838 C5.94915974,23.0308838 1.02429199,18.106016 1.02429199,12.0308838 C1.02429199,5.95575154 5.94915974,1.03088379 12.024292,1.03088379 Z" id="path-2"></path>
        <filter x="-1.1%" y="-1.1%" width="102.3%" height="104.5%" filterUnits="objectBoundingBox" id="filter-3">
            <feOffset dx="0" dy="0.5" in="SourceAlpha" result="shadowOffsetOuter1"></feOffset>
            <feColorMatrix values="0 0 0 0 0   0 0 0 0 0   0 0 0 0 0  0 0 0 0.2 0" type="matrix" in="shadowOffsetOuter1"></feColorMatrix>
        </filter>
    </defs>
    <g id="页面1" stroke="none" stroke-width="1" fill="none" fill-rule="evenodd">
        <g id="电影条目" transform="translate(-31.000000, -402.000000)">
            <g id="编组-11" transform="translate(15.000000, 388.000000)">
                <g id="Icon/Universal/action-playable/ic_action_playable" transform="translate(15.000000, 13.000000)">
                    <g id="Rectangle-1">
                        <use fill="black" fill-opacity="1" filter="url(#filter-3)" xlink:href="#path-2"></use>
                        <use fill="url(#linearGradient-1)" fill-rule="evenodd" xlink:href="#path-2"></use>
                    </g>
                    <path d="M8,15.7538093 L8,8.24401522 C8,7.55365929 8.55964406,6.99401522 9.25,6.99401522 C9.46630284,6.99401522 9.67890407,7.05014412 9.86701846,7.15691439 L16.3687813,10.8471956 C16.9691705,11.1879655 17.1796336,11.9509257 16.8388637,12.5513149 C16.7305941,12.7420708 16.5740366,12.9009794 16.3849155,13.0120801 L9.8831527,16.831593 C9.28790921,17.1812736 8.5218969,16.9822055 8.17221632,16.386962 C8.05945385,16.1950122 8,15.9764303 8,15.7538093 Z" id="Triangle-1" fill="#FFFFFF" fill-rule="evenodd"></path>
                </g>
            </g>
        </g>
    </g>
</svg>